<svg width="25" height="24" viewBox="0 0 25 24" fill="none" xmlns="http://www.w3.org/2000/svg">
<path d="M12.8718 22.75C6.94183 22.75 2.12183 17.93 2.12183 12C2.12183 6.07 6.94183 1.25 12.8718 1.25C18.8018 1.25 23.6218 6.07 23.6218 12C23.6218 17.93 18.8018 22.75 12.8718 22.75ZM12.8718 2.75C7.77183 2.75 3.62183 6.9 3.62183 12C3.62183 17.1 7.77183 21.25 12.8718 21.25C17.9718 21.25 22.1218 17.1 22.1218 12C22.1218 6.9 17.9718 2.75 12.8718 2.75Z" fill="white"/>
<path d="M16.8718 12.75H8.87183C8.46183 12.75 8.12183 12.41 8.12183 12C8.12183 11.59 8.46183 11.25 8.87183 11.25H16.8718C17.2818 11.25 17.6218 11.59 17.6218 12C17.6218 12.41 17.2818 12.75 16.8718 12.75Z" fill="white"/>
<path d="M12.8718 16.75C12.4618 16.75 12.1218 16.41 12.1218 16V8C12.1218 7.59 12.4618 7.25 12.8718 7.25C13.2818 7.25 13.6218 7.59 13.6218 8V16C13.6218 16.41 13.2818 16.75 12.8718 16.75Z" fill="white"/>
</svg>
