<svg width="17" height="17" viewBox="0 0 17 17" fill="none" xmlns="http://www.w3.org/2000/svg">
<path d="M13.8639 0.568259C14.0307 0.391867 14.2312 0.250711 14.4535 0.153138C14.6759 0.055564 14.9155 0.00355184 15.1583 0.00017564C15.401 -0.00320055 15.642 0.0421277 15.867 0.133481C16.0919 0.224835 16.2963 0.360359 16.468 0.532044C16.6396 0.70373 16.7752 0.908091 16.8665 1.13305C16.9579 1.35801 17.0032 1.599 16.9998 1.84177C16.9964 2.08455 16.9444 2.32418 16.8469 2.54651C16.7493 2.76885 16.6081 2.96936 16.4318 3.1362L11.1095 8.45859C11.1024 8.46562 11.0968 8.47397 11.093 8.48317C11.0892 8.49236 11.0872 8.50222 11.0872 8.51218C11.0872 8.52213 11.0892 8.53199 11.093 8.54118C11.0968 8.55038 11.1024 8.55873 11.1095 8.56576L16.4318 13.8881C16.6027 14.0563 16.7387 14.2566 16.8318 14.4776C16.925 14.6986 16.9734 14.9358 16.9744 15.1756C16.9754 15.4154 16.9289 15.653 16.8377 15.8747C16.7464 16.0965 16.6121 16.2979 16.4426 16.4675C16.273 16.6371 16.0716 16.7714 15.8499 16.8628C15.6282 16.9541 15.3906 17.0006 15.1508 16.9997C14.911 16.9987 14.6738 16.9503 14.4528 16.8572C14.2318 16.7641 14.0314 16.6282 13.8632 16.4573L8.54096 11.1349C8.53393 11.1279 8.52557 11.1223 8.51638 11.1185C8.50718 11.1146 8.49733 11.1127 8.48737 11.1127C8.47742 11.1127 8.46756 11.1146 8.45836 11.1185C8.44917 11.1223 8.44082 11.1279 8.43378 11.1349L3.11149 16.4573C2.94334 16.6283 2.74301 16.7642 2.52205 16.8574C2.30109 16.9505 2.06388 16.999 1.82409 17C1.5843 17.001 1.34669 16.9545 1.12496 16.8632C0.903227 16.7719 0.701762 16.6376 0.532186 16.4681C0.36261 16.2986 0.228279 16.0971 0.136941 15.8754C0.0456032 15.6537 -0.000933827 15.4161 1.41979e-05 15.1763C0.000962223 14.9365 0.0493767 14.6993 0.142465 14.4783C0.235553 14.2573 0.371473 14.0569 0.542384 13.8888L5.86467 8.56637C5.87172 8.55934 5.87732 8.55099 5.88113 8.54179C5.88495 8.53259 5.88691 8.52274 5.88691 8.51278C5.88691 8.50283 5.88495 8.49297 5.88113 8.48377C5.87732 8.47458 5.87172 8.46622 5.86467 8.45919L0.542384 3.13681C0.20627 2.79525 0.0187349 2.33471 0.0206294 1.85551C0.022524 1.3763 0.213694 0.917263 0.552499 0.578372C0.891304 0.239482 1.35029 0.0481998 1.82949 0.0461922C2.30868 0.0441847 2.76926 0.231614 3.11089 0.567654L8.43318 5.89004C8.44021 5.89709 8.44856 5.90268 8.45776 5.90649C8.46695 5.91031 8.47681 5.91227 8.48677 5.91227C8.49672 5.91227 8.50658 5.91031 8.51577 5.90649C8.52497 5.90268 8.53332 5.89709 8.54035 5.89004L13.8626 0.567654L13.8639 0.568259Z" fill="white"/>
</svg>
