<svg width="12" height="12" viewBox="0 0 12 12" fill="none" xmlns="http://www.w3.org/2000/svg">
<path d="M4.1999 12C4.04077 12 3.88816 11.9368 3.77564 11.8243C3.66312 11.7117 3.5999 11.5591 3.5999 11.4C3.5999 11.2409 3.66312 11.0883 3.77564 10.9757C3.88816 10.8632 4.04077 10.8 4.1999 10.8H9.1999C9.62425 10.8 10.0312 10.6314 10.3313 10.3314C10.6313 10.0313 10.7999 9.62435 10.7999 9.2V2.8C10.7999 2.37565 10.6313 1.96869 10.3313 1.66863C10.0312 1.36857 9.62425 1.2 9.1999 1.2H4.1999C4.04077 1.2 3.88816 1.13679 3.77564 1.02426C3.66312 0.911742 3.5999 0.75913 3.5999 0.6C3.5999 0.44087 3.66312 0.288258 3.77564 0.175736C3.88816 0.063214 4.04077 0 4.1999 0H9.1999C9.94251 0 10.6547 0.294999 11.1798 0.820101C11.7049 1.3452 11.9999 2.05739 11.9999 2.8V9.2C11.9999 9.94261 11.7049 10.6548 11.1798 11.1799C10.6547 11.705 9.94251 12 9.1999 12H4.1999ZM4.1927 2.9592C4.25058 2.90571 4.31843 2.86415 4.39238 2.8369C4.46632 2.80964 4.54492 2.79721 4.62366 2.80033C4.70241 2.80345 4.77977 2.82206 4.85133 2.85508C4.92288 2.8881 4.98723 2.9349 5.0407 2.9928L7.4407 5.5928C7.54314 5.70366 7.60003 5.84906 7.60003 6C7.60003 6.15094 7.54314 6.29634 7.4407 6.4072L5.0407 9.0072C4.98718 9.06503 4.92278 9.11176 4.8512 9.14471C4.77961 9.17766 4.70224 9.19618 4.6235 9.19923C4.54475 9.20227 4.46618 9.18978 4.39226 9.16246C4.31835 9.13514 4.25054 9.09353 4.1927 9.04C4.13487 8.98647 4.08814 8.92208 4.0552 8.8505C4.02225 8.77891 4.00372 8.70154 4.00068 8.62279C3.99452 8.46376 4.0518 8.3088 4.1599 8.192L5.6303 6.5992H0.999902C0.840772 6.5992 0.68816 6.53599 0.575638 6.42346C0.463116 6.31094 0.399902 6.15833 0.399902 5.9992C0.399902 5.84007 0.463116 5.68746 0.575638 5.57494C0.68816 5.46241 0.840772 5.3992 0.999902 5.3992H5.6295L4.1591 3.8072C4.10562 3.74932 4.06406 3.68147 4.0368 3.60752C4.00954 3.53358 3.99712 3.45499 4.00024 3.37624C4.00336 3.29749 4.02196 3.22013 4.05498 3.14857C4.08801 3.07702 4.1348 3.01267 4.1927 2.9592Z" fill="white"/>
</svg>
