<svg width="100" height="60" viewBox="0 0 100 60" fill="none"
  xmlns="http://www.w3.org/2000/svg">
  <path d="M83.715 19.2145C82.9231 19.2145 82.2685 19.5182 81.751 20.1257C81.2414 20.7332 80.9553 21.5369 80.8925 22.5369H86.4199C86.3807 21.5089 86.118 20.7005 85.6319 20.1117C85.1537 19.5135 84.5147 19.2145 83.715 19.2145ZM86.4904 27.4856H89.6775C89.4188 28.9529 88.7602 30.1118 87.7018 30.9623C86.6512 31.8034 85.334 32.224 83.7503 32.224C81.7746 32.224 80.2339 31.523 79.1285 30.1211C78.023 28.7099 77.4703 26.7473 77.4703 24.2332C77.4703 21.7192 78.0269 19.7332 79.1402 18.2752C80.2535 16.8172 81.7746 16.0883 83.7032 16.0883C85.6163 16.0883 87.1059 16.7752 88.1722 18.149C89.2463 19.5229 89.7833 21.4388 89.7833 23.8968V25.1444H80.8808V25.3547C80.9043 26.5043 81.1787 27.4155 81.704 28.0884C82.2371 28.752 82.9506 29.0837 83.8444 29.0837C84.5186 29.0837 85.0831 28.9482 85.5379 28.6772C85.9926 28.3968 86.3101 27.9996 86.4904 27.4856Z" fill="black"/>
  <path d="M64.1693 20.9668C64.1693 19.4995 64.6633 18.3219 65.6511 17.4341C66.6468 16.5369 67.9522 16.0883 69.5673 16.0883C71.2138 16.0883 72.5035 16.4855 73.4365 17.2799C74.3773 18.0743 74.8948 19.2098 74.9888 20.6864H71.8253C71.7391 20.1818 71.4999 19.7892 71.1079 19.5089C70.7238 19.2191 70.2181 19.0743 69.5908 19.0743C68.9715 19.0743 68.4618 19.2285 68.062 19.5369C67.6621 19.836 67.4622 20.2285 67.4622 20.7145C67.4622 21.0883 67.6033 21.4014 67.8856 21.6537C68.1678 21.8967 68.6108 22.0977 69.2145 22.2566L71.6489 22.8874C72.9112 23.2145 73.8324 23.7145 74.4126 24.3874C75.0006 25.0603 75.2946 25.9716 75.2946 27.1211C75.2946 28.6538 74.7693 29.8875 73.7187 30.8221C72.6681 31.7567 71.2883 32.224 69.5791 32.224C67.8699 32.224 66.5175 31.8221 65.5218 31.0183C64.5261 30.2146 63.9694 29.0697 63.8518 27.5837H67.1917C67.4661 28.6865 68.2854 29.2379 69.6496 29.2379C70.3161 29.2379 70.857 29.0884 71.2726 28.7893C71.6881 28.4809 71.8959 28.0791 71.8959 27.5837C71.8959 27.2005 71.7665 26.8921 71.5078 26.6585C71.249 26.4155 70.8335 26.2192 70.2612 26.0697L67.9091 25.4388C66.6468 25.1117 65.706 24.5837 65.0866 23.8547C64.4751 23.1164 64.1693 22.1538 64.1693 20.9668Z" fill="black"/>
  <path d="M54.2789 31.8875V16.4247H57.5953V18.892H57.807C57.9795 18.107 58.3715 17.4574 58.983 16.9434C59.6024 16.4294 60.3198 16.1724 61.1352 16.1724C61.7232 16.1724 62.1701 16.2378 62.4758 16.3686V20.0836C62.1152 19.9154 61.5742 19.8313 60.8529 19.8313C59.9042 19.8313 59.1398 20.1444 58.5596 20.7706C57.9873 21.3967 57.7011 22.2472 57.7011 23.322V31.8875H54.2789Z" fill="black"/>
  <path d="M50.8449 16.4247V31.8875H47.5284V29.4062H47.3168C46.6739 31.2847 45.4116 32.224 43.5299 32.224C42.1265 32.224 41.0171 31.7193 40.2018 30.7099C39.3942 29.6912 38.9904 28.2893 38.9904 26.5043V16.4247H42.4127V25.4529C42.4127 27.6024 43.2085 28.6772 44.8 28.6772C45.639 28.6772 46.2858 28.3828 46.7405 27.794C47.1952 27.2052 47.4226 26.3874 47.4226 25.3407V16.4247H50.8449Z" fill="black"/>
  <path d="M16.3871 32.4062C13.9252 32.4062 11.9809 31.4576 10.5539 29.5604C9.13486 27.6538 8.42532 25.0557 8.42532 21.7659C8.42532 18.4761 9.13486 15.8827 10.5539 13.9854C11.9809 12.0882 13.9252 11.1396 16.3871 11.1396C18.3942 11.1396 20.0877 11.8546 21.4675 13.2845C22.8553 14.7051 23.6158 16.5182 23.749 18.7238H20.2915C20.119 17.5556 19.676 16.621 18.9626 15.92C18.257 15.2191 17.3985 14.8686 16.3871 14.8686C15.0542 14.8686 13.9997 15.4854 13.2235 16.7191C12.4474 17.9528 12.0593 19.635 12.0593 21.7659C12.0593 23.8968 12.4474 25.5837 13.2235 26.8267C13.9997 28.0604 15.0581 28.6772 16.3988 28.6772C17.4181 28.6772 18.2805 28.3454 18.9861 27.6819C19.6917 27.0183 20.1308 26.1304 20.3033 25.0183H23.7608C23.6118 27.2052 22.8553 28.9856 21.4911 30.3595C20.1347 31.724 18.4334 32.4062 16.3871 32.4062Z" fill="black"/>
  <path d="M10.6127 42.3549C10.6127 35.4177 15.3304 29.794 21.15 29.794H77.0979C82.9174 29.794 87.6351 35.4177 87.6351 42.3549V47.4391C87.6351 54.3763 82.9174 60 77.0979 60H21.15C15.3304 60 10.6127 54.3763 10.6127 47.4391V42.3549Z" fill="#357EEB"/>
  <path d="M67.6582 54.2569C66.7409 54.2569 65.9295 54.0233 65.2238 53.556C64.5261 53.0887 64.0047 52.4345 63.6597 51.5934H63.448V54.0186H60.1316V32.6539H63.5539V41.0231H63.7656C64.0948 40.1727 64.6045 39.5091 65.2944 39.0325C65.9843 38.5465 66.7723 38.3035 67.6582 38.3035C69.2968 38.3035 70.5826 39.0091 71.5156 40.4203C72.4486 41.8316 72.9151 43.7849 72.9151 46.2802C72.9151 48.7569 72.4447 50.7055 71.5039 52.1261C70.5709 53.5466 69.289 54.2569 67.6582 54.2569ZM68.6108 42.9437C68.0855 42.1306 67.3721 41.7241 66.4704 41.7241C65.5688 41.7241 64.8514 42.1353 64.3183 42.9577C63.793 43.7708 63.5264 44.883 63.5186 46.2942C63.5264 47.6961 63.793 48.8083 64.3183 49.6307C64.8514 50.4438 65.5688 50.8504 66.4704 50.8504C67.3799 50.8504 68.0934 50.4438 68.6108 49.6307C69.1361 48.8176 69.3988 47.7008 69.3988 46.2802C69.3988 44.869 69.1361 43.7568 68.6108 42.9437Z" fill="white"/>
  <path d="M56.58 38.5558V54.0186H53.2636V51.5373H53.0519C52.409 53.4158 51.1467 54.3551 49.2651 54.3551C47.8617 54.3551 46.7523 53.8504 45.9369 52.841C45.1293 51.8223 44.7256 50.4204 44.7256 48.6354V38.5558H48.1478V47.584C48.1478 49.7335 48.9436 50.8083 50.5352 50.8083C51.3741 50.8083 52.0209 50.5139 52.4756 49.9251C52.9304 49.3363 53.1577 48.5186 53.1577 47.4718V38.5558H56.58Z" fill="white"/>
  <path d="M41.0681 54.0186H37.5165V45.5652H29.8723V54.0186H26.3206V33.7894H29.8723V41.9484H37.5165V33.7894H41.0681V54.0186Z" fill="white"/>
  <path fill-rule="evenodd" clip-rule="evenodd" d="M11.5933 11.1245L7.21385 10.6347L3.57569 10.2079L3.20505 10.1765L2.83438 10.145L2.57176 10.105L1.66445 9.96701C1.34901 9.88575 1.03355 9.80462 0.718109 9.7235L0.713706 9.72237L0.128174 9.57176C1.52813 7.97746 2.92812 6.38318 4.32812 4.7889C5.72988 3.19261 7.13165 1.59632 8.53337 0L13.2182 0.671096L13.3527 0.690374C15.6121 1.01402 17.8715 1.33765 20.1308 1.66136L15.8547 6.40109L11.5933 11.1245ZM6.11286 17.0271L12.9074 17.4931L13.9575 17.0735L19.1136 12.1443C18.8946 11.3858 18.5408 10.1477 18.1879 8.91265L18.1864 8.90754C17.8385 7.68992 17.4916 6.47593 17.2757 5.72811C16.2728 6.86869 15.41 7.80093 14.5472 8.7332C13.6847 9.66514 12.8221 10.5971 11.8195 11.7373C10.5681 11.5513 9.33388 11.4266 8.09967 11.3019C6.86577 11.1772 5.63185 11.0526 4.38067 10.8666C4.79138 12.327 5.69814 15.5521 6.11057 17.019L6.11286 17.0271Z" fill="black"/>
  <path d="M4.09016 15.7377L3.58838 15.7378L2.58445 15.7377H2.08267L2.09354 19.0247L3.08661 20.5227L4.09016 19.0284L4.09016 15.7377Z" fill="#357EEB"/>
  <path d="M3.57569 10.2079L3.20505 10.1765C3.07101 10.1665 2.93696 10.1565 2.83438 10.145L2.57176 10.105L2.58445 15.7377L3.58838 15.7378L3.57569 10.2079Z" fill="black"/>
  <path fill-rule="evenodd" clip-rule="evenodd" d="M29.9232 26.2056L34.0629 23.3566C34.7319 22.8961 34.7319 21.745 34.0629 21.2846L29.9232 18.4356C29.2542 17.9751 28.4179 18.5507 28.4179 19.4716V25.1696C28.4179 26.0905 29.2542 26.6661 29.9232 26.2056ZM35.0664 25.4286C37.0735 24.0473 37.0735 20.5939 35.0664 19.2126L30.9268 16.3636C28.9197 14.9822 26.4108 16.7089 26.4108 19.4716V25.1696C26.4108 27.9323 28.9197 29.659 30.9268 28.2776L35.0664 25.4286Z" fill="#357EEB"/>
</svg>
