<svg width="0" height="0" class="hidden">
  <symbol xmlns="http://www.w3.org/2000/svg" id="instagram" viewBox="0 0 29 28">
    <path d="M21.8647 0.591309H7.87895C4.01514 0.591309 0.871826 3.73554 0.871826 7.6005V20.3992C0.871826 24.2642 4.01514 27.4084 7.87895 27.4084H21.8647C25.7285 27.4084 28.8718 24.2642 28.8718 20.3992V7.6005C28.8718 3.73554 25.7285 0.591309 21.8647 0.591309ZM3.34372 7.6005C3.34372 5.09937 5.37856 3.06393 7.87895 3.06393H21.8647C24.3651 3.06393 26.3999 5.09937 26.3999 7.6005V20.3992C26.3999 22.9003 24.3651 24.9358 21.8647 24.9358H7.87895C5.37856 24.9358 3.34372 22.9003 3.34372 20.3992V7.6005Z"></path>
    <path d="M14.8701 20.5185C18.4631 20.5185 21.3879 17.5944 21.3879 13.9987C21.3879 10.4031 18.4647 7.479 14.8701 7.479C11.2755 7.479 8.35229 10.4031 8.35229 13.9987C8.35229 17.5944 11.2755 20.5185 14.8701 20.5185ZM14.8701 9.95321C17.1013 9.95321 18.916 11.7685 18.916 14.0003C18.916 16.2322 17.1013 18.0475 14.8701 18.0475C12.6389 18.0475 10.8242 16.2322 10.8242 14.0003C10.8242 11.7685 12.6389 9.95321 14.8701 9.95321Z"></path>
    <path d="M21.9912 8.53234C22.9588 8.53234 23.7474 7.7451 23.7474 6.77569C23.7474 5.80628 22.9604 5.01904 21.9912 5.01904C21.0221 5.01904 20.2351 5.80628 20.2351 6.77569C20.2351 7.7451 21.0221 8.53234 21.9912 8.53234Z"></path>
  </symbol>
  <symbol xmlns="http://www.w3.org/2000/svg" id="telegram" viewBox="0 0 29 24">
    <path d="M1.60745 10.9765C1.67175 10.9443 1.73608 10.9138 1.79878 10.8848C2.88869 10.3799 3.99306 9.90715 5.09583 9.43439C5.15531 9.43439 5.25496 9.36524 5.31122 9.34272C5.39642 9.30574 5.48163 9.27037 5.56683 9.23339C5.7308 9.16264 5.89478 9.09348 6.05714 9.02273C6.38508 8.88283 6.71138 8.74294 7.03932 8.60304C7.69359 8.32325 8.34785 8.04346 9.00212 7.76206C10.3107 7.20247 11.6208 6.64128 12.9294 6.08169C14.2379 5.52211 15.548 4.9609 16.8566 4.40131C18.1651 3.84172 19.4752 3.28054 20.7838 2.72095C22.0923 2.16136 23.4025 1.60015 24.711 1.04057C25.002 0.915142 25.317 0.728628 25.6289 0.673956C25.8909 0.627323 26.1465 0.537269 26.4101 0.487421C26.9101 0.392548 27.4615 0.35395 27.9405 0.561383C28.1061 0.633743 28.2588 0.735047 28.3858 0.86208C28.9935 1.46348 28.9082 2.4508 28.7796 3.29661C27.8842 9.19157 26.9889 15.0881 26.0918 20.9831C25.9697 21.7919 25.8025 22.6796 25.1643 23.1909C24.6242 23.6235 23.8558 23.6717 23.1886 23.4884C22.5215 23.3035 21.9332 22.9159 21.3561 22.5348C18.9624 20.9493 16.5672 19.3639 14.1736 17.7784C13.6045 17.4021 12.9712 16.91 12.9776 16.2266C12.9808 15.815 13.2267 15.4483 13.4775 15.1219C15.5577 12.4076 18.5589 10.5423 20.7918 7.9534C21.1069 7.58838 21.3545 6.92911 20.922 6.71846C20.6648 6.59304 20.369 6.76349 20.1343 6.9259C17.1829 8.97611 14.2331 11.0279 11.2816 13.0781C10.3187 13.7471 9.30919 14.4353 8.14855 14.5993C7.11008 14.7473 6.06518 14.4578 5.06047 14.1619C4.21812 13.9143 3.37735 13.6602 2.53983 13.3981C2.09454 13.2599 1.63478 13.1103 1.29077 12.7967C0.946756 12.4832 0.749055 11.9557 0.956428 11.5377C1.08664 11.2756 1.33903 11.1099 1.60427 10.9749L1.60745 10.9765Z"></path>
  </symbol>
  <symbol xmlns="http://www.w3.org/2000/svg" id="add" viewBox="0 0 25 24">
    <path d="M12.8718 22.75C6.94183 22.75 2.12183 17.93 2.12183 12C2.12183 6.07 6.94183 1.25 12.8718 1.25C18.8018 1.25 23.6218 6.07 23.6218 12C23.6218 17.93 18.8018 22.75 12.8718 22.75ZM12.8718 2.75C7.77183 2.75 3.62183 6.9 3.62183 12C3.62183 17.1 7.77183 21.25 12.8718 21.25C17.9718 21.25 22.1218 17.1 22.1218 12C22.1218 6.9 17.9718 2.75 12.8718 2.75Z"/>
    <path d="M16.8718 12.75H8.87183C8.46183 12.75 8.12183 12.41 8.12183 12C8.12183 11.59 8.46183 11.25 8.87183 11.25H16.8718C17.2818 11.25 17.6218 11.59 17.6218 12C17.6218 12.41 17.2818 12.75 16.8718 12.75Z"/>
    <path d="M12.8718 16.75C12.4618 16.75 12.1218 16.41 12.1218 16V8C12.1218 7.59 12.4618 7.25 12.8718 7.25C13.2818 7.25 13.6218 7.59 13.6218 8V16C13.6218 16.41 13.2818 16.75 12.8718 16.75Z"/>
  </symbol>
  <symbol xmlns="http://www.w3.org/2000/svg" id="message" viewBox="0 0 24 24">
    <path d="M16.9 19.01C16.59 19.01 16.28 18.92 16.01 18.74L15.05 18.11C14.78 17.93 14.65 17.59 14.74 17.28C14.81 17.05 14.84 16.78 14.84 16.48V12.41C14.84 10.78 13.82 9.76001 12.19 9.76001H5.39999C5.27999 9.76001 5.17 9.77003 5.06 9.78003C4.85 9.79003 4.65001 9.72002 4.49001 9.58002C4.33001 9.44002 4.25 9.24003 4.25 9.03003V6.26001C4.25 3.32001 6.31 1.26001 9.25 1.26001H17.75C20.69 1.26001 22.75 3.32001 22.75 6.26001V11.36C22.75 12.81 22.26 14.09 21.36 14.97C20.64 15.7 19.64 16.17 18.5 16.31V17.42C18.5 18.02 18.17 18.56 17.65 18.84C17.41 18.95 17.15 19.01 16.9 19.01ZM16.3 17.13L16.95 17.5C17.01 17.47 17.01 17.42 17.01 17.41V15.6C17.01 15.19 17.35 14.85 17.76 14.85C18.81 14.85 19.7 14.52 20.31 13.9C20.94 13.28 21.26 12.4 21.26 11.35V6.25C21.26 4.12 19.89 2.75 17.76 2.75H9.25999C7.12999 2.75 5.75999 4.12 5.75999 6.25V8.25H12.2C14.64 8.25 16.35 9.96002 16.35 12.4V16.47C16.34 16.7 16.33 16.92 16.3 17.13Z"/>
    <path d="M6.07001 22.75C5.85001 22.75 5.62 22.7 5.41 22.59C4.94 22.34 4.64999 21.86 4.64999 21.32V20.56C3.76999 20.42 2.99 20.05 2.41 19.47C1.65 18.71 1.25 17.67 1.25 16.47V12.4C1.25 10.14 2.72999 8.48002 4.92999 8.27002C5.08999 8.26002 5.23999 8.25 5.39999 8.25H12.19C14.63 8.25 16.34 9.96002 16.34 12.4V16.47C16.34 16.91 16.29 17.32 16.18 17.69C15.73 19.49 14.2 20.62 12.19 20.62H9.7L6.87 22.5C6.63 22.67 6.35001 22.75 6.07001 22.75ZM5.39999 9.75C5.27999 9.75 5.17 9.76002 5.06 9.77002C3.62 9.90002 2.75 10.89 2.75 12.4V16.47C2.75 17.27 3 17.94 3.47 18.41C3.93 18.87 4.59999 19.12 5.39999 19.12C5.80999 19.12 6.14999 19.46 6.14999 19.87V21.18L9.05 19.25C9.17 19.17 9.32 19.12 9.47 19.12H12.19C13.51 19.12 14.44 18.46 14.73 17.3C14.8 17.05 14.84 16.77 14.84 16.47V12.4C14.84 10.77 13.82 9.75 12.19 9.75H5.39999Z"/>
  </symbol>
  <symbol xmlns="http://www.w3.org/2000/svg" id="profile" viewBox="0 0 24 24">
    <path d="M9.1596 11.62C9.1296 11.62 9.1096 11.62 9.0796 11.62C9.0296 11.61 8.9596 11.61 8.8996 11.62C5.9996 11.53 3.8096 9.25 3.8096 6.44C3.8096 3.58 6.1396 1.25 8.9996 1.25C11.8596 1.25 14.1896 3.58 14.1896 6.44C14.1796 9.25 11.9796 11.53 9.1896 11.62C9.1796 11.62 9.1696 11.62 9.1596 11.62ZM8.9996 2.75C6.9696 2.75 5.3096 4.41 5.3096 6.44C5.3096 8.44 6.8696 10.05 8.8596 10.12C8.9196 10.11 9.0496 10.11 9.1796 10.12C11.1396 10.03 12.6796 8.42 12.6896 6.44C12.6896 4.41 11.0296 2.75 8.9996 2.75Z"/>
    <path d="M16.5396 11.75C16.5096 11.75 16.4796 11.75 16.4496 11.74C16.0396 11.78 15.6196 11.49 15.5796 11.08C15.5396 10.67 15.7896 10.3 16.1996 10.25C16.3196 10.24 16.4496 10.24 16.5596 10.24C18.0196 10.16 19.1596 8.96 19.1596 7.49C19.1596 5.97 17.9296 4.74 16.4096 4.74C15.9996 4.75 15.6596 4.41 15.6596 4C15.6596 3.59 15.9996 3.25 16.4096 3.25C18.7496 3.25 20.6596 5.16 20.6596 7.5C20.6596 9.8 18.8596 11.66 16.5696 11.75C16.5596 11.75 16.5496 11.75 16.5396 11.75Z"/>
    <path d="M9.16961 22.55C7.20961 22.55 5.23961 22.05 3.74961 21.05C2.35961 20.13 1.59961 18.87 1.59961 17.5C1.59961 16.13 2.35961 14.86 3.74961 13.93C6.74961 11.94 11.6096 11.94 14.5896 13.93C15.9696 14.85 16.7396 16.11 16.7396 17.48C16.7396 18.85 15.9796 20.12 14.5896 21.05C13.0896 22.05 11.1296 22.55 9.16961 22.55ZM4.57961 15.19C3.61961 15.83 3.09961 16.65 3.09961 17.51C3.09961 18.36 3.62961 19.18 4.57961 19.81C7.06961 21.48 11.2696 21.48 13.7596 19.81C14.7196 19.17 15.2396 18.35 15.2396 17.49C15.2396 16.64 14.7096 15.82 13.7596 15.19C11.2696 13.53 7.06961 13.53 4.57961 15.19Z"/>
    <path d="M18.3396 20.75C17.9896 20.75 17.6796 20.51 17.6096 20.15C17.5296 19.74 17.7896 19.35 18.1896 19.26C18.8196 19.13 19.3996 18.88 19.8496 18.53C20.4196 18.1 20.7296 17.56 20.7296 16.99C20.7296 16.42 20.4196 15.88 19.8596 15.46C19.4196 15.12 18.8696 14.88 18.2196 14.73C17.8196 14.64 17.5596 14.24 17.6496 13.83C17.7396 13.43 18.1396 13.17 18.5496 13.26C19.4096 13.45 20.1596 13.79 20.7696 14.26C21.6996 14.96 22.2296 15.95 22.2296 16.99C22.2296 18.03 21.6896 19.02 20.7596 19.73C20.1396 20.21 19.3596 20.56 18.4996 20.73C18.4396 20.75 18.3896 20.75 18.3396 20.75Z"/>
  </symbol>
  <symbol xmlns="http://www.w3.org/2000/svg" id="layer" viewBox="0 0 24 24">
    <path d="M11.79 11.88C11.25 11.88 10.7 11.78 10.27 11.59L4.36999 8.97C2.86999 8.3 2.64999 7.4 2.64999 6.91C2.64999 6.42 2.86999 5.52 4.36999 4.85L10.27 2.23C11.14 1.84 12.45 1.84 13.32 2.23L19.23 4.85C20.72 5.51 20.95 6.42 20.95 6.91C20.95 7.4 20.73 8.3 19.23 8.97L13.32 11.59C12.88 11.79 12.34 11.88 11.79 11.88ZM11.79 3.44C11.45 3.44 11.12 3.49 10.88 3.6L4.97999 6.22C4.36999 6.5 4.14999 6.78 4.14999 6.91C4.14999 7.04 4.36999 7.33 4.96999 7.6L10.87 10.22C11.35 10.43 12.22 10.43 12.7 10.22L18.61 7.6C19.22 7.33 19.44 7.04 19.44 6.91C19.44 6.78 19.22 6.49 18.61 6.22L12.71 3.6C12.47 3.5 12.13 3.44 11.79 3.44Z"/>
    <path d="M12 17.09C11.62 17.09 11.24 17.01 10.88 16.85L4.09 13.83C3.06 13.38 2.25 12.13 2.25 11C2.25 10.59 2.59 10.25 3 10.25C3.41 10.25 3.75 10.59 3.75 11C3.75 11.55 4.2 12.24 4.7 12.47L11.49 15.49C11.81 15.63 12.18 15.63 12.51 15.49L19.3 12.47C19.8 12.25 20.25 11.55 20.25 11C20.25 10.59 20.59 10.25 21 10.25C21.41 10.25 21.75 10.59 21.75 11C21.75 12.13 20.94 13.38 19.91 13.84L13.12 16.86C12.76 17.01 12.38 17.09 12 17.09Z"/>
    <path d="M12 22.09C11.62 22.09 11.24 22.01 10.88 21.85L4.09 18.83C2.97 18.33 2.25 17.22 2.25 15.99C2.25 15.58 2.59 15.24 3 15.24C3.41 15.24 3.75 15.59 3.75 16C3.75 16.63 4.12 17.21 4.7 17.47L11.49 20.49C11.81 20.63 12.18 20.63 12.51 20.49L19.3 17.47C19.88 17.21 20.25 16.64 20.25 16C20.25 15.59 20.59 15.25 21 15.25C21.41 15.25 21.75 15.59 21.75 16C21.75 17.23 21.03 18.34 19.91 18.84L13.12 21.86C12.76 22.01 12.38 22.09 12 22.09Z"/>
  </symbol>
  <symbol xmlns="http://www.w3.org/2000/svg" id="bookmark" viewBox="0 0 14 14">
    <path d="M9.33333 13.2709H4.66667C2.5375 13.2709 1.3125 12.0459 1.3125 9.91669V4.08335C1.3125 1.95419 2.5375 0.729187 4.66667 0.729187H9.33333C11.4625 0.729187 12.6875 1.95419 12.6875 4.08335V9.91669C12.6875 12.0459 11.4625 13.2709 9.33333 13.2709ZM4.66667 1.60419C2.99833 1.60419 2.1875 2.41502 2.1875 4.08335V9.91669C2.1875 11.585 2.99833 12.3959 4.66667 12.3959H9.33333C11.0017 12.3959 11.8125 11.585 11.8125 9.91669V4.08335C11.8125 2.41502 11.0017 1.60419 9.33333 1.60419H4.66667Z"/>
    <path d="M5.25001 6.48084C5.15084 6.48084 5.05168 6.46336 4.95834 6.42253C4.69001 6.30586 4.52084 6.04335 4.52084 5.75752V1.16669C4.52084 0.92752 4.71918 0.729187 4.95834 0.729187H9.04168C9.28084 0.729187 9.47918 0.92752 9.47918 1.16669V5.75168C9.47918 6.04334 9.31001 6.30585 9.04168 6.41669C8.77918 6.53335 8.47002 6.48086 8.25419 6.28253L7.00001 5.13335L5.74583 6.28837C5.60583 6.4167 5.43084 6.48084 5.25001 6.48084ZM7.00001 4.20587C7.17501 4.20587 7.35583 4.27001 7.49583 4.39834L8.60418 5.41917V1.60419H5.39584V5.41917L6.50419 4.39834C6.64419 4.27001 6.82501 4.20587 7.00001 4.20587Z"/>
    <path d="M10.2083 8.60419H7.72916C7.48999 8.60419 7.29166 8.40585 7.29166 8.16669C7.29166 7.92752 7.48999 7.72919 7.72916 7.72919H10.2083C10.4475 7.72919 10.6458 7.92752 10.6458 8.16669C10.6458 8.40585 10.4475 8.60419 10.2083 8.60419Z"/>
    <path d="M10.2083 10.9375H5.25C5.01083 10.9375 4.8125 10.7392 4.8125 10.5C4.8125 10.2608 5.01083 10.0625 5.25 10.0625H10.2083C10.4475 10.0625 10.6458 10.2608 10.6458 10.5C10.6458 10.7392 10.4475 10.9375 10.2083 10.9375Z"/>
  </symbol>
  <symbol xmlns="http://www.w3.org/2000/svg" id="teacher" viewBox="0 0 14 14">
    <path d="M7.00584 9.91669C6.51001 9.91669 6.00834 9.78835 5.61751 9.53752L2.10584 7.24502C1.45251 6.81919 1.06168 6.10169 1.06168 5.32002C1.06168 4.53835 1.45251 3.82085 2.10584 3.39502L5.62334 1.10835C6.40501 0.600854 7.62418 0.600854 8.40001 1.11419L11.8942 3.40669C12.5417 3.83252 12.9325 4.55002 12.9325 5.32585C12.9325 6.10169 12.5417 6.81919 11.8942 7.24502L8.40001 9.53752C8.00918 9.79419 7.50751 9.91669 7.00584 9.91669ZM7.00584 1.60419C6.67334 1.60419 6.34084 1.68002 6.10168 1.84335L2.59001 4.13002C2.18168 4.39835 1.94251 4.83002 1.94251 5.32002C1.94251 5.81002 2.17584 6.24169 2.59001 6.51002L6.10168 8.80252C6.58584 9.11752 7.43751 9.11752 7.92168 8.80252L11.4158 6.51002C11.8242 6.24169 12.0575 5.81002 12.0575 5.32002C12.0575 4.83002 11.8242 4.39835 11.4158 4.13002L7.92168 1.83752C7.67668 1.68585 7.34418 1.60419 7.00584 1.60419Z"/>
    <path d="M6.99999 13.2708C6.74333 13.2708 6.48083 13.2358 6.27083 13.1658L4.40999 12.5475C3.52916 12.2558 2.83499 11.2933 2.84083 10.3658L2.84666 7.63C2.84666 7.39084 3.04499 7.1925 3.28416 7.1925C3.52333 7.1925 3.72166 7.39084 3.72166 7.63L3.71583 10.3658C3.71583 10.9142 4.17083 11.5442 4.68999 11.7192L6.55083 12.3375C6.78416 12.4133 7.21583 12.4133 7.44916 12.3375L9.30999 11.7192C9.82916 11.5442 10.2842 10.9142 10.2842 10.3717V7.66501C10.2842 7.42584 10.4825 7.22751 10.7217 7.22751C10.9608 7.22751 11.1592 7.42584 11.1592 7.66501V10.3717C11.1592 11.2992 10.4708 12.2558 9.58999 12.5533L7.72916 13.1717C7.51916 13.2358 7.25666 13.2708 6.99999 13.2708Z"/>
    <path d="M12.4833 9.1875C12.2442 9.1875 12.0458 8.98917 12.0458 8.75V5.25C12.0458 5.01083 12.2442 4.8125 12.4833 4.8125C12.7225 4.8125 12.9208 5.01083 12.9208 5.25V8.75C12.9208 8.98917 12.7225 9.1875 12.4833 9.1875Z"/>
  </symbol>
  <symbol xmlns="http://www.w3.org/2000/svg" id="tasks" viewBox="0 0 14 14">
    <path d="M10.2783 5.61169H7.21582C6.97665 5.61169 6.77832 5.41336 6.77832 5.17419C6.77832 4.93503 6.97665 4.73669 7.21582 4.73669H10.2783C10.5175 4.73669 10.7158 4.93503 10.7158 5.17419C10.7158 5.41336 10.5233 5.61169 10.2783 5.61169Z"/>
    <path d="M4.15333 6.055C4.04249 6.055 3.93166 6.01417 3.84416 5.92667L3.40666 5.48917C3.23749 5.32 3.23749 5.04 3.40666 4.87083C3.57583 4.70167 3.85583 4.70167 4.02499 4.87083L4.15333 4.99917L5.15666 3.99583C5.32583 3.82667 5.60583 3.82667 5.77499 3.99583C5.94416 4.165 5.94416 4.445 5.77499 4.61417L4.46249 5.92667C4.38083 6.00833 4.26999 6.055 4.15333 6.055Z"/>
    <path d="M10.2783 9.69501H7.21582C6.97665 9.69501 6.77832 9.49667 6.77832 9.25751C6.77832 9.01834 6.97665 8.82001 7.21582 8.82001H10.2783C10.5175 8.82001 10.7158 9.01834 10.7158 9.25751C10.7158 9.49667 10.5233 9.69501 10.2783 9.69501Z"/>
    <path d="M4.15333 10.1383C4.04249 10.1383 3.93166 10.0975 3.84416 10.01L3.40666 9.57248C3.23749 9.40331 3.23749 9.12331 3.40666 8.95415C3.57583 8.78498 3.85583 8.78498 4.02499 8.95415L4.15333 9.08248L5.15666 8.07915C5.32583 7.90998 5.60583 7.90998 5.77499 8.07915C5.94416 8.24831 5.94416 8.52831 5.77499 8.69748L4.46249 10.01C4.38083 10.0916 4.26999 10.1383 4.15333 10.1383Z"/>
    <path d="M8.74999 13.2709H5.24999C2.08249 13.2709 0.729156 11.9175 0.729156 8.75002V5.25002C0.729156 2.08252 2.08249 0.729187 5.24999 0.729187H8.74999C11.9175 0.729187 13.2708 2.08252 13.2708 5.25002V8.75002C13.2708 11.9175 11.9175 13.2709 8.74999 13.2709ZM5.24999 1.60419C2.56082 1.60419 1.60416 2.56085 1.60416 5.25002V8.75002C1.60416 11.4392 2.56082 12.3959 5.24999 12.3959H8.74999C11.4392 12.3959 12.3958 11.4392 12.3958 8.75002V5.25002C12.3958 2.56085 11.4392 1.60419 8.74999 1.60419H5.24999Z"/>
  </symbol>
  <symbol xmlns="http://www.w3.org/2000/svg" id="star" viewBox="0 0 70 70">
    <path d="M51.5092 66.1215C49.9634 66.1215 47.9801 65.6256 45.5009 64.1673L36.7801 59.0048C35.8759 58.4798 34.1259 58.4798 33.2509 59.0048L24.5009 64.1673C19.3384 67.2298 16.3051 66.0048 14.9342 65.0131C13.5926 64.0215 11.4926 61.484 12.8634 55.6506L14.9342 46.6965C15.1676 45.7631 14.7009 44.159 14.0009 43.459L6.76757 36.2256C3.1509 32.609 3.44257 29.5173 3.9384 28.0006C4.43423 26.484 6.00923 23.8006 11.0259 22.9548L20.3301 21.409C21.2051 21.2631 22.4592 20.3298 22.8384 19.5423L28.0009 9.24646C30.3342 4.55063 33.3967 3.85063 35.0009 3.85063C36.6051 3.85063 39.6676 4.55063 42.0009 9.24646L47.1342 19.5131C47.5426 20.3006 48.7967 21.234 49.6717 21.3798L58.9759 22.9256C64.0217 23.7715 65.5967 26.4548 66.0634 27.9715C66.5301 29.4881 66.8217 32.5798 63.2342 36.1965L56.0009 43.459C55.3009 44.159 54.8634 45.734 55.0676 46.6965L57.1384 55.6506C58.4801 61.484 56.4092 64.0215 55.0676 65.0131C54.3384 65.5381 53.1717 66.1215 51.5092 66.1215Z"/>
  </symbol>
  <defs>
    <radialGradient r="150%" cx="5%" cy="110%" id="instagramGradient">
      <stop stop-color="#fdf497" offset="0" />
      <stop stop-color="#fdf497" offset="0.05" />
      <stop stop-color="#fd5949" offset="0.45" />
      <stop stop-color="#d6249f" offset="0.6" />
      <stop stop-color="#285AEB" offset="0.9" />
    </radialGradient>
  </defs>
</svg>